<svg width="22" height="15" viewBox="0 0 22 15" fill="none" xmlns="http://www.w3.org/2000/svg">
<path d="M8.84404 6.80398C9.5027 7.56398 9.83204 8.47598 9.83204 9.53998C9.83204 10.8066 9.37604 11.896 8.46404 12.808C7.6027 13.72 6.5387 14.176 5.27204 14.176C4.00537 14.176 2.91604 13.7453 2.00404 12.884C1.1427 11.972 0.712036 10.8573 0.712036 9.53998C0.712036 5.99331 2.8147 2.82665 7.02004 0.039978L8.54004 1.33198C8.03337 1.78798 7.55204 2.39598 7.09604 3.15598C6.6907 3.86531 6.43737 4.54931 6.33604 5.20798C7.34937 5.46131 8.18537 5.99331 8.84404 6.80398ZM20.928 6.80398C21.5867 7.56398 21.916 8.47598 21.916 9.53998C21.916 10.8066 21.46 11.896 20.548 12.808C19.636 13.72 18.572 14.176 17.356 14.176C16.0894 14.176 15 13.72 14.088 12.808C13.176 11.896 12.72 10.8066 12.72 9.53998C12.72 6.09464 14.848 2.92798 19.104 0.039978L20.7 1.33198C20.1934 1.78798 19.712 2.37065 19.256 3.07998C18.8507 3.78931 18.572 4.49865 18.42 5.20798C19.4334 5.46131 20.2694 5.99331 20.928 6.80398Z" fill="black"/>
</svg>
